<svg xmlns="http://www.w3.org/2000/svg" viewBox="0 0 50 50"><path d="M8.706 26.112c-.236 0-.47-.083-.655-.244-.3-.264-.42-.685-.29-1.067 1.14-3.46 2.94-5.77 5.35-6.86 3.17-1.42 6.18-.16 6.31-.11.51.22.74.81.53 1.32-.21.51-.8.74-1.31.53-.05-.02-2.38-.96-4.71.11-1.37.63-2.504 1.82-3.39 3.56 1.89-.58 4.5-1 6.1.42.41.365.45.997.08 1.41-.366.413-1 .45-1.41.085-1.24-1.096-4.667.048-6.134.77-.14.074-.29.108-.44.108z"/><path d="M21.65 36.15c-.418 0-.808-.264-.95-.68-.175-.524.106-1.092.63-1.268 20.933-7.05 18.77-20.972 18.068-23.868-2.888-.686-16.84-2.812-23.872 18.065-.176.52-.745.8-1.267.62-.53-.18-.81-.75-.63-1.27C21.97 2.97 40.33 8.5 40.51 8.56c.31.1.55.34.65.65.055.185 5.58 18.54-19.2 26.88-.105.04-.213.056-.32.056z"/><path d="M24.617 42.023c-.285 0-.562-.122-.755-.345-.264-.304-.32-.737-.142-1.098.576-1.168 1.953-4.802.772-6.135-.366-.413-.328-1.045.085-1.41.413-.37 1.045-.33 1.412.084 1.41 1.59 1 4.2.41 6.09 1.73-.88 2.92-2.02 3.55-3.39 1.07-2.36.11-4.7.1-4.72-.22-.51.02-1.1.53-1.31.5-.22 1.09.01 1.3.52.05.12 1.32 3.13-.11 6.3-1.09 2.41-3.4 4.21-6.86 5.35-.1.03-.21.05-.31.05zM7 43.73c-.07 0-.142-.01-.213-.024-.54-.117-.88-.65-.764-1.19.166-.76 1.653-7.47 2.798-9.275.95-1.48 2.08-1.84 2.86-1.88 2.25-.14 4.16 2.25 4.36 2.52.34.44.26 1.07-.17 1.41s-1.06.26-1.4-.17c-.37-.46-1.64-1.77-2.69-1.74-.16.01-.67.03-1.26.96-.72 1.14-1.93 5.9-2.53 8.637-.1.465-.51.785-.97.785z"/><path d="M7 43.73c-.46 0-.875-.32-.977-.787-.118-.54.224-1.073.764-1.19 2.734-.598 7.496-1.814 8.633-2.534.924-.59.948-1.1.956-1.27.046-.98-1.153-2.23-1.74-2.69-.438-.34-.517-.97-.178-1.41.34-.44.968-.52 1.403-.18.27.2 2.63 2.1 2.52 4.36-.03.78-.39 1.91-1.88 2.85-1.8 1.14-8.51 2.63-9.27 2.8-.07.01-.14.02-.21.02zm14.65-7.58c-.257 0-.513-.098-.708-.293l-7.07-7.07c-.392-.392-.392-1.024 0-1.415s1.022-.39 1.413 0l7.07 7.07c.392.392.392 1.024 0 1.415-.194.196-.45.293-.706.293zM31 23c-2.2 0-4-1.8-4-4s1.8-4 4-4 4 1.8 4 4-1.8 4-4 4zm0-6c-1.1 0-2 .9-2 2s.9 2 2 2 2-.9 2-2-.9-2-2-2z"/></svg>
