<svg xmlns="http://www.w3.org/2000/svg" viewBox="0 0 50 50"><path d="M6 26h14v2H6v-2z"/><path d="M12 20h2v14h-2V20zm32 20c0-2.9-1-4.9-2.9-6-1.6-.6-6.2-3.5-6.2-4.4V28c.6-.5 1.5-1.5 1.7-3.1.6-.4 1.3-1.3 1.3-2.6 0-.6-.2-1.1-.4-1.4.2-.7.5-2.1.5-3.8 0-2.7-1.6-5.5-3.5-5.9-.8-.9-2.3-1.2-3.5-1.2-4.3 0-7 3.1-7 7 0 1.2.2 2.7.4 3.5-.2.4-.5 1-.5 1.7 0 1.2.8 2.1 1.3 2.6.2 1.6 1.2 2.7 1.8 3.2v1.5c0 1.1-4.8 3.7-6.5 4.5s-2.2 3.5-2.5 6m2.3-2c.1-.9.4-1.7 1-2.1 2.4-1 7.8-3.9 7.8-6.3V27l-.5-.3c0-.1-1.3-.9-1.3-2.4v-.5l-.4-.3c-.3-.2-.9-.8-.9-1.3 0-.4.2-.7.3-.7l.4-.5-.1-.5s-.5-2.2-.5-3.5c0-2.8 1.9-5 5-5 1.2 0 1.9.4 1.9.8l.3.5h.6c.9 0 2 2 2 4s-.5 3.6-.5 3.6l-.2.5.4.4c.1.1.3.4.3.6 0 .8-.5 1.1-.6 1.1l-.6.3v.7c0 1.6-1.2 2.4-1.2 2.4l-.5.3v2.6c0 2.3 5.3 5.3 7.5 6.1.7.5 1.1 1.3 1.2 2.1H20.3z"/></svg>
