<svg xmlns="http://www.w3.org/2000/svg" viewBox="0 0 50 50"><path d="M38 15.7L30.4 8H15c-1.7 0-3 1.3-3 3v28c0 1.7 1.3 3 3 3h19.9c1.7 0 3.1-1.4 3.1-3V15.7zm-7-4.2l3.5 3.5H31v-3.5zM34.9 40H15c-.6 0-1-.4-1-1V11c0-.6.4-1 1-1h14v6c0 .6.4 1 1 1h6v22c0 .5-.5 1-1.1 1z"/><path d="M20.5 24.2c-.9 0-1.5.4-1.9 1.1v-1h-.9v7.9h1v-3c.3.6 1 .9 1.7.9 1.3 0 2.5-1 2.5-3-.1-1.8-1-2.9-2.4-2.9zm-.3 5c-.7 0-1.3-.5-1.5-1.2v-1.4c0-.1 0-.3.1-.4.2-.8.8-1.3 1.5-1.3 1 0 1.6 1 1.6 2.1 0 1.4-.6 2.2-1.7 2.2zm8.6-7.5h-1V25c-.2-.5-.8-.9-1.6-.9-1.3 0-2.4 1.1-2.4 3 0 1.7 1 2.9 2.3 2.9.9 0 1.5-.5 1.8-1.1v1h.9v-8.2zm-1 5.9v.4c-.2.8-.8 1.2-1.4 1.2-1.1 0-1.6-.9-1.6-2.1 0-1.2.6-2.2 1.6-2.2.7 0 1.3.5 1.4 1.2v1.5zm3.3-5.5c-.5.5-.6 1.2-.6 2v.3h-.8v.8h.8V30h1v-4.8h1.3v-.8h-1.3V24c0-.9.2-1.6 1.1-1.6.3 0 .5.1.6.1l.1-.8c-.2-.1-.5-.2-.8-.2-.5.1-1 .2-1.4.6z"/></svg>
