<svg xmlns="http://www.w3.org/2000/svg" viewBox="0 0 50 50"><path d="M25 42c-9.4 0-17-7.6-17-17S15.6 8 25 8s17 7.6 17 17-7.6 17-17 17zm0-32c-8.3 0-15 6.7-15 15s6.7 15 15 15 15-6.7 15-15-6.7-15-15-15z"/><path d="M26.793 21.456l-2.638 9.34c-0.178 0.631-0.266 1.008-0.266 1.133c0 0.142 0.042 0.258 0.127 0.346 s0.184 0.133 0.3 0.133c0.133 0 0.293-0.071 0.48-0.213c0.506-0.4 1.017-0.968 1.532-1.705l0.466 0.306c-0.604 0.924-1.315 1.701-2.132 2.332c-0.604 0.471-1.181 0.706-1.732 0.706c-0.364 0-0.662-0.109-0.893-0.326c-0.231-0.218-0.346-0.491-0.346-0.819s0.111-0.875 0.333-1.639l1.732-5.969c0.284-0.977 0.426-1.59 0.426-1.839c0-0.195-0.069-0.355-0.207-0.48c-0.138-0.124-0.326-0.187-0.566-0.187c-0.195 0-0.6 0.049-1.213 0.147v-0.52L26.793 21.456zM26.62 16.166c0.373 0 0.688 0.129 0.946 0.386s0.386 0.573 0.386 0.946c0 0.364-0.131 0.677-0.393 0.939c-0.262 0.262-0.575 0.393-0.939 0.393s-0.677-0.131-0.939-0.393c-0.262-0.262-0.393-0.575-0.393-0.939c0-0.373 0.129-0.688 0.386-0.946S26.247 16.166 26.62 16.166z"/></svg>
