<svg xmlns="http://www.w3.org/2000/svg" viewBox="0 0 50 50"><path d="M24 4H26V46H24z" transform="rotate(-135 25 25)"/><path d="M12.5 33.3c-1.4-2.1-2.3-4.6-2.4-7.3h6c0 1.2.1 2.3.3 3.4l1.8-1.8c0-.5-.1-1.1-.1-1.6h1.7l2-2H18c.1-2.4.4-4.6 1-6.6 1.6.3 3.3.5 5 .5v3.8l2-2V18c.6 0 1.3-.1 1.9-.1l2.3-2.3c-1.3.2-2.8.4-4.2.4v-5.8c1.7.6 3.2 2.5 4.3 5.2l1.5-1.5c-.5-1.2-1.1-2.2-1.8-3 1.1.4 2.2 1 3.2 1.6l1.5-1.5C32 9.1 28.6 8 25 8 15.6 8 8 15.6 8 25c0 3.6 1.1 7 3 9.7L12.5 33.3zM24 10.2V16c-1.5 0-3-.2-4.4-.4C20.7 12.7 22.3 10.7 24 10.2zM19.9 10.9c-.9 1.1-1.7 2.6-2.3 4.2-1.1-.3-2.1-.6-3-1C16.2 12.7 18 11.6 19.9 10.9zM13.3 15.6c1.1.6 2.4 1 3.7 1.4-.6 2.1-.9 4.5-1 7h-6C10.3 20.8 11.4 17.9 13.3 15.6zM37.5 16.7c1.4 2.1 2.3 4.6 2.4 7.3h-6c0-1.2-.1-2.3-.3-3.4l-1.8 1.8c0 .5.1 1.1.1 1.6h-1.7l-2 2H32c-.1 2.4-.4 4.6-1 6.6-1.6-.3-3.3-.5-5-.5v-3.8l-2 2V32c-.6 0-1.3.1-1.9.1l-2.3 2.3c1.3-.2 2.8-.4 4.2-.4v5.8c-1.7-.6-3.2-2.5-4.3-5.2l-1.5 1.5c.5 1.2 1.1 2.2 1.8 3-1.1-.4-2.2-1-3.2-1.6L15.3 39c2.8 1.9 6.1 3 9.7 3 9.4 0 17-7.6 17-17 0-3.6-1.1-7-3-9.7L37.5 16.7zM26 39.8V34c1.5 0 3 .2 4.4.5C29.3 37.3 27.7 39.3 26 39.8zM30.1 39.1c.9-1.1 1.7-2.6 2.3-4.2 1 .3 2 .6 2.9 1C33.8 37.3 32 38.4 30.1 39.1zM36.7 34.4c-1.1-.6-2.4-1-3.7-1.4.6-2.1.9-4.5 1-7h6C39.7 29.2 38.6 32.1 36.7 34.4z"/></svg>
