<svg xmlns="http://www.w3.org/2000/svg" viewBox="0 0 50 50"><path d="M17.5 13.2c2.1-.8 4.6-1.2 7.5-1.2 9.4 0 15 4.5 15 12.1 0 2-.5 5.6-3.3 8.3l1.4 1.4c2.6-2.4 4-5.7 4-9.8 0-8.6-6.5-14-17-14-3.5 0-6.5.6-9 1.7l1.4 1.5zm13.6 22.2c-1.7.5-3.7.7-6.1.7h-1.7l-.3.4c-1.1 1.4-3 3.1-6.3 3.5.6-1.2.9-2.6 1.1-4.2l.1-.8-.7-.3C13.9 33.4 10 30.4 10 24c0-2.9.9-5.4 2.5-7.3L11 15.3c-2 2.3-3 5.2-3 8.7 0 5.6 2.8 9.9 7.8 12.2-.3 1.7-.8 3.1-1.6 4.2L13 42h2c4.9 0 7.7-2.1 9.3-4h.7c2.9 0 5.4-.4 7.6-1.1l-1.5-1.5zM12.7 11.28L38.72 37.3l-1.42 1.42L11.28 12.7z"/></svg>
