<svg xmlns="http://www.w3.org/2000/svg" viewBox="0 0 50 50"><path d="M42 25c0-8.8-6.8-16.1-15.4-16.9C26.1 8 25.5 8 25 8s-1.1 0-1.6.1C14.8 8.9 8 16.2 8 25c0 4.9 2.1 9.4 5.5 12.5 2.7 2.5 6.1 4.1 9.9 4.4.5.1 1.1.1 1.6.1s1.1 0 1.6-.1c3.8-.4 7.2-2 9.9-4.4C39.9 34.4 42 29.9 42 25zm-9.5 8.2c.9-2.3 1.4-4.7 1.5-7.2h6c-.2 3.4-1.6 6.5-3.8 8.9-1.2-.6-2.4-1.2-3.7-1.7zm-15 0c-1.3.4-2.5 1-3.7 1.7-2.1-2.4-3.5-5.5-3.8-8.9h6c.2 2.5.7 5 1.5 7.2zM34 24c-.1-2.5-.6-5-1.5-7.2 1.3-.4 2.5-1 3.7-1.7 2.1 2.4 3.5 5.5 3.8 8.9h-6zm-8-13.6c1.5 1.5 2.7 3.2 3.7 5.1-1.2.3-2.4.5-3.7.5v-5.6zM24 16a22 22 0 0 1-3.7-.5c1-1.9 2.2-3.6 3.7-5.1V16zm0 2v6h-6c.1-2.3.6-4.6 1.4-6.7 1.5.4 3 .6 4.6.7zm2 0c1.6-.1 3.1-.3 4.5-.6.8 2.1 1.3 4.3 1.4 6.7h-6V18zm5.7-3.1c-.8-1.6-1.7-3-2.8-4.4 2.2.6 4.2 1.6 5.9 3.1-1.1.5-2.1.9-3.1 1.3zm-13.4 0c-1.1-.4-2.1-.8-3-1.3 1.7-1.4 3.7-2.5 5.9-3.1-1.1 1.4-2.1 2.8-2.9 4.4zm-.8 1.9c-.8 2.2-1.3 4.7-1.5 7.2h-6c.2-3.4 1.6-6.5 3.8-8.9 1.2.6 2.4 1.2 3.7 1.7zM24 26v6c-1.6.1-3.1.3-4.5.6-.8-2.1-1.3-4.3-1.4-6.7H24zm0 8v5.6c-1.5-1.5-2.7-3.2-3.7-5.1 1.2-.2 2.4-.4 3.7-.5zm2 5.6V34c1.3.1 2.5.2 3.7.5-1 1.9-2.2 3.6-3.7 5.1zm0-7.6v-6h6c-.1 2.3-.6 4.6-1.4 6.7-1.5-.4-3-.6-4.6-.7zm-7.7 3.1c.8 1.6 1.7 3 2.8 4.4-2.2-.6-4.2-1.6-5.9-3.1 1.1-.5 2.1-.9 3.1-1.3zm10.5 4.4c1.1-1.3 2.1-2.8 2.8-4.4 1.1.4 2.1.8 3 1.3a13.6 13.6 0 0 1-5.8 3.1z"/></svg>
