<svg xmlns="http://www.w3.org/2000/svg" viewBox="0 0 50 50"><path d="M26.7 25.3l-16-16-1.4 1.4 14 14 2 2 14 14 1.4-1.4zm-9.9-12.8c1.3-.9 2.8-1.6 4.4-2-1 1.2-1.9 2.5-2.6 3.9l3.5 3.5c.6.1 1.3.1 1.9.2v1.8l1.9 1.9V18h.1c1.6-.1 3.1-.3 4.5-.6.8 2.1 1.3 4.3 1.4 6.7h-3.6l1.9 1.9H32c0 .5-.1 1.1-.1 1.6l1.7 1.7c.2-1.1.4-2.2.4-3.4h5.9c-.1 2.2-.7 4.2-1.7 6-.2.4-.5.8-.8 1.2l1.5 1.5c.2-.3.5-.7.7-1.1 0-.1.1-.1.1-.2.2-.4.5-.9.7-1.3 0-.1.1-.2.1-.2.2-.4.4-.9.5-1.4 0-.1.1-.2.1-.2.2-.5.3-.9.4-1.4 0-.1.1-.2.1-.3.1-.5.2-1 .2-1.4v-.3c.2-.6.2-1.2.2-1.8 0-.6 0-1.1-.1-1.7 0-.3-.1-.7-.1-1 0-.2-.1-.4-.1-.6-.1-.5-.2-.9-.3-1.3v-.2c-1.9-6.7-7.9-11.6-15-12.2H25c-.4 0-.8 0-1.3.1-3.1.2-6 1.3-8.4 3l1.5 1.4zm23 9.8c.1.5.2 1.1.2 1.7h-6c-.1-2.5-.6-5-1.5-7.2 1.3-.4 2.5-1 3.7-1.7 1.8 2 3 4.5 3.6 7.2zM29.3 10.6c.2 0 .3.1.5.2.4.1.7.2 1.1.4 1.4.6 2.7 1.4 3.9 2.4-1.1.5-2.1.9-3.1 1.3-.8-1.6-1.7-3-2.8-4.4.1.1.3.1.4.1zm-3.3-.2c1.5 1.5 2.7 3.2 3.7 5.1-1.2.3-2.4.5-3.7.5v-5.6zm-2 0V16c-1.2-.1-2.5-.2-3.7-.5 1-1.9 2.2-3.6 3.7-5.1zm9.2 27.1c-.4.3-.9.6-1.3.8-.1 0-.1.1-.2.1-.3.2-.7.3-1.1.5-.2.1-.5.2-.7.3-.4.1-.7.2-1.1.3 1-1.2 1.9-2.5 2.6-3.9L28 32.2c-.7-.1-1.3-.2-2-.2v-1.8l-2-2V32c-1.6.1-3.1.3-4.5.6-.8-2.1-1.3-4.3-1.4-6.7h3.6L19.8 24H18c0-.5.1-1.1.1-1.6l-1.7-1.7c-.2 1.1-.4 2.2-.5 3.3H10c.1-2.2.7-4.2 1.7-6 .2-.4.5-.8.8-1.2L11 15.3c-1 1.5-1.8 3.1-2.4 4.9v.2c-.1.4-.2.9-.3 1.3 0 .2-.1.4-.1.6-.1.3-.1.7-.1 1-.1.6-.1 1.1-.1 1.7 0 .6 0 1.2.1 1.8v.3c.1.5.1 1 .2 1.4 0 .1.1.2.1.3.1.5.2 1 .4 1.4 0 .1.1.2.1.2.2.5.3.9.5 1.4 0 .1.1.2.1.2.2.4.4.9.7 1.3 0 .1.1.1.1.2.2.4.5.8.8 1.2 0 .1.1.1.1.2l.9 1.2.1.1c.7.7 1.4 1.4 2.2 2 0 0 .1 0 .1.1.3.3.7.5 1 .7.4.3.8.5 1.3.8h.1c.4.2.9.5 1.4.7.1 0 .1 0 .2.1.4.2.9.3 1.3.5.1 0 .2.1.3.1.3.1.7.2 1 .3.2.1.5.1.7.1.1 0 .3 0 .4.1.5.1 1 .1 1.5.2s.9.1 1.3.1.8 0 1.3-.1c3.1-.2 6-1.3 8.4-3l-1.5-1.4zm-19.4-2.6c-1.8-2-3-4.5-3.6-7.2-.1-.5-.2-1.1-.2-1.7h6c.2 2.5.7 5 1.5 7.2-1.3.4-2.5 1-3.7 1.7zm6.9 4.5c-.2 0-.3-.1-.5-.2-.4-.1-.7-.2-1.1-.4-1.4-.6-2.7-1.4-3.9-2.4 1.1-.5 2.1-.9 3.1-1.3.8 1.6 1.7 3 2.8 4.4-.1-.1-.3-.1-.4-.1zm3.3.2c-1.5-1.5-2.7-3.2-3.7-5.1 1.2-.2 2.4-.4 3.7-.5v5.6zm2 0V34c1.3.1 2.5.2 3.7.5-1 1.9-2.2 3.6-3.7 5.1z"/></svg>
